{
	"asset":{
		"version":"2.0",
		"generator":"Created using the official Cinema 4D glTF Exporter 1.000x284978"
	},
	"scenes":[{
		"nodes":[0,
		1]
	}],
	"nodes":[{
		"name":"多边形",
		"mesh":0
	},
	{
		"name":"立方体",
		"mesh":1
	}],
	"meshes":[{
		"name":"多边形",
		"primitives":[{
			"attributes":{
				"POSITION":1,
				"NORMAL":2
			},
			"indices":0
		}]
	},
	{
		"name":"立方体",
		"primitives":[{
			"attributes":{
				"POSITION":4,
				"NORMAL":5,
				"TEXCOORD_0":6
			},
			"indices":3
		}]
	}],
	"accessors":[{
		"bufferView":0,
		"type":"SCALAR",
		"componentType":5123,
		"count":30,
		"byteOffset":0,
		"min":[0],
		"max":[11]
	},
	{
		"bufferView":1,
		"type":"VEC3",
		"componentType":5126,
		"count":12,
		"byteOffset":0,
		"min":[1.7763568394002506e-15,
		0.0,
		0.0],
		"max":[930.0,
		0.0,
		1035.0]
	},
	{
		"bufferView":1,
		"type":"VEC3",
		"componentType":5126,
		"count":12,
		"byteOffset":12,
		"min":[0.0,
		1.0,
		0.0],
		"max":[0.0,
		1.0,
		0.0]
	},
	{
		"bufferView":2,
		"type":"SCALAR",
		"componentType":5123,
		"count":36,
		"byteOffset":0,
		"min":[0],
		"max":[23]
	},
	{
		"bufferView":3,
		"type":"VEC3",
		"componentType":5126,
		"count":24,
		"byteOffset":0,
		"min":[-465.0,
		-5.0,
		-517.5],
		"max":[465.0,
		5.0,
		517.5]
	},
	{
		"bufferView":3,
		"type":"VEC3",
		"componentType":5126,
		"count":24,
		"byteOffset":12,
		"min":[-1.0,
		-1.0,
		-1.0],
		"max":[1.0,
		1.0,
		1.0]
	},
	{
		"bufferView":3,
		"type":"VEC2",
		"componentType":5126,
		"count":24,
		"byteOffset":24,
		"min":[0.0,
		0.0],
		"max":[1.0,
		1.0]
	}],
	"bufferViews":[{
		"buffer":0,
		"byteOffset":0,
		"byteLength":60,
		"target":34963
	},
	{
		"buffer":0,
		"byteOffset":60,
		"byteLength":288,
		"target":34962,
		"byteStride":24
	},
	{
		"buffer":1,
		"byteOffset":0,
		"byteLength":72,
		"target":34963
	},
	{
		"buffer":1,
		"byteOffset":72,
		"byteLength":768,
		"target":34962,
		"byteStride":32
	}],
	"buffers":[{
		"uri":"data:application/octet-stream;base64,",
		"byteLength":348
	},
	{
		"uri":"data:application/octet-stream;base64,",
		"byteLength":840
	}]
}